# xmcd
#
# Track frame offsets:
# 150
# 14752
# 29029
# 38749
# 53365
# 67121
# 78524
# 95052
# 103965
# 117014
# 129587
# 146636
# 165527
#
# Disc length: 2400 seconds
#
#
# Revision: 0
# Processed by: cddbd v1.5.2PL0 Copyright (c) Steve Scherf et al.
# Submitted via: FreeRIP 2.951 
#
DISCID=b7095e0d
DTITLE=nashgamblers - nash gamblers mix
DYEAR=1900
DGENRE=Country
TTITLE0=cottonfields - live
TTITLE1=face on the cuttingroom floor
TTITLE2=guitar down
TTITLE3=high lonesome sound
TTITLE4=cash song
TTITLE5=diggy diggy lie
TTITLE6=if I needed you
TTITLE7=I will go stepping to
TTITLE8=mobile line
TTITLE9=winsborough cotton mills blues
TTITLE10=lighthouse in the harbour
TTITLE11=river in the rain
TTITLE12=jambalaya
EXTD=
EXTT0=
EXTT1=
EXTT2=
EXTT3=
EXTT4=
EXTT5=
EXTT6=
EXTT7=
EXTT8=
EXTT9=
EXTT10=
EXTT11=
EXTT12=
PLAYORDER=
